# xmcd
#
# Track frame offsets: 
#        150
#        18205
#        58495
#        82061
#        118996
#        144551
#        177460
#        190942
#
# Disc length: 3034 seconds
#
# Revision: 0
# Processed by: cddbd v1.5.2PL0 Copyright (c) Steve Scherf et al.
# Submitted via: ExactAudioCopyFreeDBPlugin 1.0
#
DISCID=770bd808
DTITLE=Daniel Bashta - My Resurrection (Live)
DYEAR=2017
DGENRE=Christian and Gospel
TTITLE0=Thank You Jesus (Live) [feat. Matt Jackson]
TTITLE1=Bellows of Praise (Live)
TTITLE2=Drenched in Love (Live)
TTITLE3=Praise the Lord - Rejoice (Live) [feat. Eb Cole]
TTITLE4=Praise the Invisible (Live)
TTITLE5=Spontaneous Medley (Live)
TTITLE6=Costly (Live) [feat. Harvest Parker]
TTITLE7=Seas of Crimson (Live)
EXTD=
EXTT0=
EXTT1=
EXTT2=
EXTT3=
EXTT4=
EXTT5=
EXTT6=
EXTT7=
PLAYORDER=
